<?xml version="1.0" standalone="no"?>
<!DOCTYPE svg PUBLIC "-//W3C//DTD SVG 20010904//EN"
 "http://www.w3.org/TR/2001/REC-SVG-20010904/DTD/svg10.dtd">
<svg version="1.0" xmlns="http://www.w3.org/2000/svg"
 width="16.000000pt" height="16.000000pt" viewBox="0 0 16.000000 16.000000"
 preserveAspectRatio="xMidYMid meet">
<metadata>
Created by potrace 1.11, written by Peter Selinger 2001-2013
</metadata>
<g transform="translate(0.000000,16.000000) scale(0.003265,-0.003265)"
fill="#000000" stroke="none">
<path d="M3383 3722 c-10 -7 -32 -12 -48 -10 -17 1 -35 -1 -40 -4 -6 -3 -23
-5 -40 -4 -16 1 -45 -4 -64 -11 -18 -7 -39 -13 -47 -13 -7 0 -25 -5 -41 -12
-15 -6 -30 -12 -33 -13 -3 -1 -23 -10 -45 -20 -22 -10 -45 -19 -50 -21 -6 -1
-39 -21 -74 -45 -54 -37 -65 -41 -82 -31 -11 7 -24 10 -29 7 -5 -3 -11 -1 -15
5 -4 6 -10 8 -15 5 -5 -3 -11 -2 -13 2 -7 12 -134 7 -201 -7 -67 -14 -176 -58
-176 -71 0 -5 -6 -9 -14 -9 -7 0 -27 -16 -44 -36 l-31 -36 -81 81 c-44 45 -87
81 -95 81 -8 0 -15 4 -15 9 0 14 -117 59 -200 76 -8 2 -15 4 -15 5 0 1 -30 2
-68 3 -37 1 -67 -2 -67 -6 0 -5 -10 -7 -22 -6 -13 1 -41 -3 -62 -9 -22 -6 -43
-9 -47 -6 -4 2 -11 -1 -14 -7 -4 -5 -13 -8 -21 -5 -8 3 -14 2 -14 -3 0 -5 -12
-12 -27 -16 -15 -3 -59 -21 -98 -39 -69 -32 -72 -32 -105 -17 -19 9 -37 19
-40 22 -3 3 -14 8 -25 12 -11 3 -49 17 -85 30 -36 13 -71 22 -78 19 -6 -2 -12
0 -12 5 0 9 -15 10 -148 13 -51 2 -96 0 -99 -4 -3 -3 -16 -6 -28 -6 -13 0 -42
-7 -66 -16 -24 -9 -48 -17 -54 -18 -14 -3 -79 -37 -85 -45 -3 -3 -25 -22 -50
-41 -25 -19 -46 -37 -48 -41 -2 -4 -15 -21 -30 -37 -15 -17 -32 -37 -39 -45
-21 -26 -60 -111 -73 -160 -7 -26 -16 -50 -21 -53 -4 -2 -6 -11 -3 -18 3 -8 2
-16 -3 -19 -4 -3 -7 -68 -7 -144 2 -145 1 -143 71 -364 13 -42 23 -80 22 -85
-1 -5 0 -11 1 -14 1 -3 4 -41 5 -85 2 -80 -7 -116 -78 -285 -5 -14 -11 -29
-13 -35 -1 -5 -11 -35 -22 -65 -19 -52 -38 -129 -48 -203 -7 -46 -8 -203 -2
-213 5 -7 16 -49 23 -84 5 -27 56 -102 91 -136 62 -59 176 -111 262 -120 46
-4 95 -11 102 -14 9 -4 235 0 275 5 93 11 187 40 277 86 38 19 41 19 96 4 31
-9 62 -21 68 -26 6 -5 18 -7 26 -4 8 3 28 1 44 -6 16 -6 47 -13 68 -16 22 -2
47 -8 57 -13 9 -5 19 -7 22 -3 3 3 14 2 24 -2 36 -15 295 -8 363 10 36 9 70
18 75 19 14 3 95 46 112 59 8 7 23 20 34 29 21 20 45 23 54 8 11 -17 82 -50
148 -67 41 -10 104 -16 187 -16 128 1 180 13 261 60 25 15 30 15 64 -1 21 -10
43 -19 49 -20 6 -1 40 -9 76 -18 51 -13 140 -32 185 -40 2 -1 26 -5 52 -10 95
-16 171 -20 383 -18 225 1 264 3 291 14 10 4 23 6 30 5 8 -1 21 0 29 4 8 3 40
11 70 17 58 12 182 51 190 60 3 3 18 11 33 18 34 15 43 22 123 99 35 34 64 66
64 72 0 5 6 16 13 23 34 36 85 182 94 268 3 36 10 71 15 77 15 19 16 185 1
201 -7 7 -13 32 -13 55 0 48 -48 227 -61 227 -5 0 -9 5 -9 12 0 20 -53 120
-67 125 -7 3 -13 11 -13 17 0 7 -20 30 -46 52 -25 21 -51 44 -58 51 -26 23
-120 75 -175 96 -60 23 -62 23 -103 25 l-28 2 28 58 c15 31 29 59 32 62 3 3 6
14 6 25 1 11 4 40 7 65 11 80 7 203 -6 217 -4 3 -7 14 -7 24 0 30 -50 155 -71
178 -10 11 -19 24 -19 29 0 5 -19 29 -43 54 -45 48 -109 89 -172 112 -22 8
-53 20 -70 26 -33 14 -38 15 -110 25 -27 4 -56 12 -63 18 -19 15 -238 15 -259
-1z m75 -487 c45 -18 73 -61 68 -101 -6 -45 -14 -57 -51 -83 -70 -47 -147 -2
-151 89 -2 28 2 50 7 50 5 0 9 6 9 13 0 9 53 41 77 46 2 1 20 -6 41 -14z
m-988 -402 c14 -3 42 -6 63 -5 36 1 54 -12 20 -15 -49 -4 -133 -27 -180 -50
-23 -12 -44 -19 -46 -17 -8 8 5 54 15 54 5 0 7 4 3 9 -3 5 -1 12 5 16 5 3 10
14 10 24 0 18 3 18 43 4 23 -8 53 -17 67 -20z m282 20 c0 -4 4 -18 9 -31 8
-20 6 -23 -8 -19 -27 8 -117 21 -126 18 -5 -1 -5 3 -2 9 4 6 13 9 21 6 7 -3
16 -1 20 5 3 6 11 8 17 6 6 -2 23 2 36 9 25 13 32 13 33 -3z m-1367 -43 c0 -1
8 -3 18 -5 30 -6 66 -34 80 -63 26 -51 7 -154 -50 -265 -20 -40 -36 -74 -36
-77 1 -3 -6 -16 -16 -28 -17 -23 -51 -22 -51 2 0 6 -14 27 -30 46 -43 51 -42
49 -79 119 -38 71 -44 135 -18 174 26 41 87 96 110 100 21 3 72 2 72 -3z
m2310 -580 c4 -6 10 -8 15 -5 5 3 23 -4 40 -17 88 -65 91 -180 7 -244 -35 -26
-51 -32 -94 -32 -47 1 -56 5 -92 39 -54 54 -68 98 -47 152 23 57 48 85 93 102
46 17 70 18 78 5z"/>
</g>
</svg>
